%TF.GenerationSoftware,KiCad,Pcbnew,(6.0.0)*%
%TF.CreationDate,2022-12-15T23:32:01-05:00*%
%TF.ProjectId,FanExpander,46616e45-7870-4616-9e64-65722e6b6963,rev?*%
%TF.SameCoordinates,Original*%
%TF.FileFunction,Copper,L2,Bot*%
%TF.FilePolarity,Positive*%
%FSLAX46Y46*%
G04 Gerber Fmt 4.6, Leading zero omitted, Abs format (unit mm)*
G04 Created by KiCad (PCBNEW (6.0.0)) date 2022-12-15 23:32:01*
%MOMM*%
%LPD*%
G01*
G04 APERTURE LIST*
G04 Aperture macros list*
%AMRoundRect*
0 Rectangle with rounded corners*
0 $1 Rounding radius*
0 $2 $3 $4 $5 $6 $7 $8 $9 X,Y pos of 4 corners*
0 Add a 4 corners polygon primitive as box body*
4,1,4,$2,$3,$4,$5,$6,$7,$8,$9,$2,$3,0*
0 Add four circle primitives for the rounded corners*
1,1,$1+$1,$2,$3*
1,1,$1+$1,$4,$5*
1,1,$1+$1,$6,$7*
1,1,$1+$1,$8,$9*
0 Add four rect primitives between the rounded corners*
20,1,$1+$1,$2,$3,$4,$5,0*
20,1,$1+$1,$4,$5,$6,$7,0*
20,1,$1+$1,$6,$7,$8,$9,0*
20,1,$1+$1,$8,$9,$2,$3,0*%
G04 Aperture macros list end*
%TA.AperFunction,ComponentPad*%
%ADD10R,2.600000X2.600000*%
%TD*%
%TA.AperFunction,ComponentPad*%
%ADD11C,2.600000*%
%TD*%
%TA.AperFunction,ComponentPad*%
%ADD12R,1.700000X1.700000*%
%TD*%
%TA.AperFunction,ComponentPad*%
%ADD13RoundRect,0.250000X0.600000X0.725000X-0.600000X0.725000X-0.600000X-0.725000X0.600000X-0.725000X0*%
%TD*%
%TA.AperFunction,ComponentPad*%
%ADD14O,1.700000X1.950000*%
%TD*%
%TA.AperFunction,ViaPad*%
%ADD15C,0.800000*%
%TD*%
%TA.AperFunction,Conductor*%
%ADD16C,0.250000*%
%TD*%
G04 APERTURE END LIST*
D10*
%TO.P,J3,1,Pin_1*%
%TO.N,GND*%
X115240000Y-102540000D03*
D11*
%TO.P,J3,2,Pin_2*%
%TO.N,/Vfan*%
X115240000Y-97460000D03*
%TD*%
D10*
%TO.P,J2,1,Pin_1*%
%TO.N,/Vfan*%
X84760000Y-97460000D03*
D11*
%TO.P,J2,2,Pin_2*%
%TO.N,FanGround*%
X84760000Y-102540000D03*
%TD*%
D12*
%TO.P,J5,1,Pin_1*%
%TO.N,Net-(C3-Pad2)*%
X103810000Y-104191000D03*
%TD*%
D13*
%TO.P,J1,1,Pin_1*%
%TO.N,+3V3*%
X103750000Y-113000000D03*
D14*
%TO.P,J1,2,Pin_2*%
%TO.N,FanEn*%
X101250000Y-113000000D03*
%TO.P,J1,3,Pin_3*%
%TO.N,~{FAIL} Out*%
X98750000Y-113000000D03*
%TO.P,J1,4,Pin_4*%
%TO.N,GND*%
X96250000Y-113000000D03*
%TD*%
D12*
%TO.P,J4,1,Pin_1*%
%TO.N,Net-(C3-Pad1)*%
X96190000Y-104191000D03*
%TD*%
D15*
%TO.N,GND*%
X100000000Y-100000000D03*
X91110000Y-98095000D03*
X109144000Y-105588000D03*
%TO.N,FanEn*%
X100254000Y-102032000D03*
%TD*%
D16*
%TO.N,FanEn*%
X101250000Y-103000000D02*
X101250000Y-113000000D01*
X100254000Y-102032000D02*
X101250000Y-103028000D01*
%TD*%
%TA.AperFunction,Conductor*%
%TO.N,GND*%
G36*
X122434121Y-92528002D02*
G01*
X122480614Y-92581658D01*
X122492000Y-92634000D01*
X122492000Y-115366000D01*
X122471998Y-115434121D01*
X122418342Y-115480614D01*
X122366000Y-115492000D01*
X77634000Y-115492000D01*
X77565879Y-115471998D01*
X77519386Y-115418342D01*
X77508000Y-115366000D01*
X77508000Y-113270193D01*
X94899410Y-113270193D01*
X94906124Y-113349325D01*
X94907914Y-113359797D01*
X94963130Y-113572535D01*
X94966665Y-113582575D01*
X95056937Y-113782970D01*
X95062106Y-113792256D01*
X95184850Y-113974575D01*
X95191519Y-113982870D01*
X95343228Y-114141900D01*
X95351186Y-114148941D01*
X95527525Y-114280141D01*
X95536562Y-114285745D01*
X95732484Y-114385357D01*
X95742335Y-114389357D01*
X95952240Y-114454534D01*
X95962624Y-114456817D01*
X95978043Y-114458861D01*
X95992207Y-114456665D01*
X95996000Y-114443478D01*
X95996000Y-114441192D01*
X96504000Y-114441192D01*
X96507973Y-114454723D01*
X96518580Y-114456248D01*
X96636421Y-114431523D01*
X96646617Y-114428463D01*
X96851029Y-114347737D01*
X96860561Y-114343006D01*
X97048462Y-114228984D01*
X97057052Y-114222720D01*
X97223052Y-114078673D01*
X97230472Y-114071042D01*
X97369826Y-113901089D01*
X97375848Y-113892326D01*
X97391238Y-113865289D01*
X97442320Y-113815982D01*
X97511951Y-113802120D01*
X97578022Y-113828103D01*
X97605261Y-113857253D01*
X97634773Y-113901089D01*
X97687441Y-113979319D01*
X97691120Y-113983176D01*
X97691122Y-113983178D01*
X97752710Y-114047738D01*
X97846576Y-114146135D01*
X98031542Y-114283754D01*
X98036293Y-114286170D01*
X98036297Y-114286172D01*
X98099481Y-114318296D01*
X98237051Y-114388240D01*
X98242145Y-114389822D01*
X98242148Y-114389823D01*
X98407583Y-114441192D01*
X98457227Y-114456607D01*
X98462516Y-114457308D01*
X98680489Y-114486198D01*
X98680494Y-114486198D01*
X98685774Y-114486898D01*
X98691103Y-114486698D01*
X98691105Y-114486698D01*
X98800966Y-114482573D01*
X98916158Y-114478249D01*
X98938802Y-114473498D01*
X99136572Y-114432002D01*
X99141791Y-114430907D01*
X99146750Y-114428949D01*
X99146752Y-114428948D01*
X99351256Y-114348185D01*
X99351258Y-114348184D01*
X99356221Y-114346224D01*
X99361525Y-114343006D01*
X99548757Y-114229390D01*
X99548756Y-114229390D01*
X99553317Y-114226623D01*
X99593134Y-114192072D01*
X99723412Y-114079023D01*
X99723414Y-114079021D01*
X99727445Y-114075523D01*
X99791048Y-113997954D01*
X99870240Y-113901373D01*
X99870244Y-113901367D01*
X99873624Y-113897245D01*
X99891552Y-113865750D01*
X99942632Y-113816445D01*
X100012262Y-113802583D01*
X100078333Y-113828566D01*
X100105573Y-113857716D01*
X100110983Y-113865752D01*
X100187441Y-113979319D01*
X100191120Y-113983176D01*
X100191122Y-113983178D01*
X100252710Y-114047738D01*
X100346576Y-114146135D01*
X100531542Y-114283754D01*
X100536293Y-114286170D01*
X100536297Y-114286172D01*
X100599481Y-114318296D01*
X100737051Y-114388240D01*
X100742145Y-114389822D01*
X100742148Y-114389823D01*
X100907583Y-114441192D01*
X100957227Y-114456607D01*
X100962516Y-114457308D01*
X101180489Y-114486198D01*
X101180494Y-114486198D01*
X101185774Y-114486898D01*
X101191103Y-114486698D01*
X101191105Y-114486698D01*
X101300966Y-114482573D01*
X101416158Y-114478249D01*
X101438802Y-114473498D01*
X101636572Y-114432002D01*
X101641791Y-114430907D01*
X101646750Y-114428949D01*
X101646752Y-114428948D01*
X101851256Y-114348185D01*
X101851258Y-114348184D01*
X101856221Y-114346224D01*
X101861525Y-114343006D01*
X102048757Y-114229390D01*
X102048756Y-114229390D01*
X102053317Y-114226623D01*
X102093134Y-114192072D01*
X102223412Y-114079023D01*
X102223414Y-114079021D01*
X102227445Y-114075523D01*
X102256670Y-114039880D01*
X102315329Y-113999886D01*
X102386299Y-113997954D01*
X102447048Y-114034698D01*
X102461248Y-114053468D01*
X102477062Y-114079023D01*
X102551522Y-114199348D01*
X102676697Y-114324305D01*
X102682927Y-114328145D01*
X102682928Y-114328146D01*
X102820090Y-114412694D01*
X102827262Y-114417115D01*
X102862938Y-114428948D01*
X102988611Y-114470632D01*
X102988613Y-114470632D01*
X102995139Y-114472797D01*
X103001975Y-114473497D01*
X103001978Y-114473498D01*
X103037663Y-114477154D01*
X103099600Y-114483500D01*
X104400400Y-114483500D01*
X104403646Y-114483163D01*
X104403650Y-114483163D01*
X104499308Y-114473238D01*
X104499312Y-114473237D01*
X104506166Y-114472526D01*
X104512702Y-114470345D01*
X104512704Y-114470345D01*
X104644806Y-114426272D01*
X104673946Y-114416550D01*
X104824348Y-114323478D01*
X104949305Y-114198303D01*
X104981462Y-114146135D01*
X105038275Y-114053968D01*
X105038276Y-114053966D01*
X105042115Y-114047738D01*
X105092031Y-113897245D01*
X105095632Y-113886389D01*
X105095632Y-113886387D01*
X105097797Y-113879861D01*
X105100114Y-113857253D01*
X105103100Y-113828103D01*
X105108500Y-113775400D01*
X105108500Y-112224600D01*
X105104292Y-112184041D01*
X105098238Y-112125692D01*
X105098237Y-112125688D01*
X105097526Y-112118834D01*
X105094079Y-112108500D01*
X105043868Y-111958002D01*
X105041550Y-111951054D01*
X104948478Y-111800652D01*
X104823303Y-111675695D01*
X104792965Y-111656994D01*
X104678968Y-111586725D01*
X104678966Y-111586724D01*
X104672738Y-111582885D01*
X104559353Y-111545277D01*
X104511389Y-111529368D01*
X104511387Y-111529368D01*
X104504861Y-111527203D01*
X104498025Y-111526503D01*
X104498022Y-111526502D01*
X104454969Y-111522091D01*
X104400400Y-111516500D01*
X103099600Y-111516500D01*
X103096354Y-111516837D01*
X103096350Y-111516837D01*
X103000692Y-111526762D01*
X103000688Y-111526763D01*
X102993834Y-111527474D01*
X102987298Y-111529655D01*
X102987296Y-111529655D01*
X102855194Y-111573728D01*
X102826054Y-111583450D01*
X102675652Y-111676522D01*
X102550695Y-111801697D01*
X102546855Y-111807927D01*
X102546854Y-111807928D01*
X102524843Y-111843637D01*
X102470260Y-111932187D01*
X102460920Y-111947339D01*
X102408148Y-111994832D01*
X102338076Y-112006256D01*
X102272952Y-111977982D01*
X102262490Y-111968195D01*
X102157103Y-111857722D01*
X102153424Y-111853865D01*
X101968458Y-111716246D01*
X101963706Y-111713830D01*
X101963698Y-111713825D01*
X101952394Y-111708078D01*
X101900737Y-111659375D01*
X101883500Y-111595762D01*
X101883500Y-110132703D01*
X115890743Y-110132703D01*
X115928268Y-110417734D01*
X116004129Y-110695036D01*
X116116923Y-110959476D01*
X116264561Y-111206161D01*
X116444313Y-111430528D01*
X116461397Y-111446740D01*
X116634115Y-111610643D01*
X116652851Y-111628423D01*
X116886317Y-111796186D01*
X116890112Y-111798195D01*
X116890113Y-111798196D01*
X116908494Y-111807928D01*
X117140392Y-111930712D01*
X117242819Y-111968195D01*
X117375699Y-112016822D01*
X117410373Y-112029511D01*
X117691264Y-112090755D01*
X117719841Y-112093004D01*
X117914282Y-112108307D01*
X117914291Y-112108307D01*
X117916739Y-112108500D01*
X118072271Y-112108500D01*
X118074407Y-112108354D01*
X118074418Y-112108354D01*
X118282548Y-112094165D01*
X118282554Y-112094164D01*
X118286825Y-112093873D01*
X118291020Y-112093004D01*
X118291022Y-112093004D01*
X118427584Y-112064723D01*
X118568342Y-112035574D01*
X118839343Y-111939607D01*
X119094812Y-111807750D01*
X119098313Y-111805289D01*
X119098317Y-111805287D01*
X119227842Y-111714255D01*
X119330023Y-111642441D01*
X119465189Y-111516837D01*
X119537479Y-111449661D01*
X119537481Y-111449658D01*
X119540622Y-111446740D01*
X119722713Y-111224268D01*
X119872927Y-110979142D01*
X119988483Y-110715898D01*
X120067244Y-110439406D01*
X120107751Y-110154784D01*
X120107845Y-110136951D01*
X120109235Y-109871583D01*
X120109235Y-109871576D01*
X120109257Y-109867297D01*
X120071732Y-109582266D01*
X119995871Y-109304964D01*
X119883077Y-109040524D01*
X119735439Y-108793839D01*
X119555687Y-108569472D01*
X119347149Y-108371577D01*
X119113683Y-108203814D01*
X119091843Y-108192250D01*
X119068654Y-108179972D01*
X118859608Y-108069288D01*
X118589627Y-107970489D01*
X118308736Y-107909245D01*
X118277685Y-107906801D01*
X118085718Y-107891693D01*
X118085709Y-107891693D01*
X118083261Y-107891500D01*
X117927729Y-107891500D01*
X117925593Y-107891646D01*
X117925582Y-107891646D01*
X117717452Y-107905835D01*
X117717446Y-107905836D01*
X117713175Y-107906127D01*
X117708980Y-107906996D01*
X117708978Y-107906996D01*
X117572417Y-107935276D01*
X117431658Y-107964426D01*
X117160657Y-108060393D01*
X116905188Y-108192250D01*
X116901687Y-108194711D01*
X116901683Y-108194713D01*
X116891594Y-108201804D01*
X116669977Y-108357559D01*
X116459378Y-108553260D01*
X116277287Y-108775732D01*
X116127073Y-109020858D01*
X116011517Y-109284102D01*
X115932756Y-109560594D01*
X115892249Y-109845216D01*
X115892227Y-109849505D01*
X115892226Y-109849512D01*
X115890765Y-110128417D01*
X115890743Y-110132703D01*
X101883500Y-110132703D01*
X101883500Y-105089134D01*
X102451500Y-105089134D01*
X102458255Y-105151316D01*
X102509385Y-105287705D01*
X102596739Y-105404261D01*
X102713295Y-105491615D01*
X102849684Y-105542745D01*
X102911866Y-105549500D01*
X104708134Y-105549500D01*
X104770316Y-105542745D01*
X104906705Y-105491615D01*
X105023261Y-105404261D01*
X105110615Y-105287705D01*
X105161745Y-105151316D01*
X105168500Y-105089134D01*
X105168500Y-103884669D01*
X113432001Y-103884669D01*
X113432371Y-103891490D01*
X113437895Y-103942352D01*
X113441521Y-103957604D01*
X113486676Y-104078054D01*
X113495214Y-104093649D01*
X113571715Y-104195724D01*
X113584276Y-104208285D01*
X113686351Y-104284786D01*
X113701946Y-104293324D01*
X113822394Y-104338478D01*
X113837649Y-104342105D01*
X113888514Y-104347631D01*
X113895328Y-104348000D01*
X114967885Y-104348000D01*
X114983124Y-104343525D01*
X114984329Y-104342135D01*
X114986000Y-104334452D01*
X114986000Y-104329884D01*
X115494000Y-104329884D01*
X115498475Y-104345123D01*
X115499865Y-104346328D01*
X115507548Y-104347999D01*
X116584669Y-104347999D01*
X116591490Y-104347629D01*
X116642352Y-104342105D01*
X116657604Y-104338479D01*
X116778054Y-104293324D01*
X116793649Y-104284786D01*
X116895724Y-104208285D01*
X116908285Y-104195724D01*
X116984786Y-104093649D01*
X116993324Y-104078054D01*
X117038478Y-103957606D01*
X117042105Y-103942351D01*
X117047631Y-103891486D01*
X117048000Y-103884672D01*
X117048000Y-102812115D01*
X117043525Y-102796876D01*
X117042135Y-102795671D01*
X117034452Y-102794000D01*
X115512115Y-102794000D01*
X115496876Y-102798475D01*
X115495671Y-102799865D01*
X115494000Y-102807548D01*
X115494000Y-104329884D01*
X114986000Y-104329884D01*
X114986000Y-102812115D01*
X114981525Y-102796876D01*
X114980135Y-102795671D01*
X114972452Y-102794000D01*
X113450116Y-102794000D01*
X113434877Y-102798475D01*
X113433672Y-102799865D01*
X113432001Y-102807548D01*
X113432001Y-103884669D01*
X105168500Y-103884669D01*
X105168500Y-103292866D01*
X105161745Y-103230684D01*
X105110615Y-103094295D01*
X105023261Y-102977739D01*
X104906705Y-102890385D01*
X104770316Y-102839255D01*
X104708134Y-102832500D01*
X102911866Y-102832500D01*
X102849684Y-102839255D01*
X102713295Y-102890385D01*
X102596739Y-102977739D01*
X102509385Y-103094295D01*
X102458255Y-103230684D01*
X102451500Y-103292866D01*
X102451500Y-105089134D01*
X101883500Y-105089134D01*
X101883500Y-103106768D01*
X101884027Y-103095585D01*
X101885702Y-103088092D01*
X101883562Y-103020001D01*
X101883500Y-103016044D01*
X101883500Y-102960144D01*
X101881821Y-102946859D01*
X101881017Y-102936626D01*
X101880923Y-102936031D01*
X101880674Y-102928111D01*
X101878553Y-102920811D01*
X101878358Y-102919439D01*
X101874289Y-102887233D01*
X101868474Y-102841203D01*
X101865175Y-102832869D01*
X101818407Y-102714749D01*
X101809552Y-102692383D01*
X101715472Y-102562893D01*
X101592144Y-102460867D01*
X101584972Y-102457492D01*
X101578281Y-102453246D01*
X101578666Y-102452640D01*
X101551335Y-102433431D01*
X101385789Y-102267885D01*
X113432000Y-102267885D01*
X113436475Y-102283124D01*
X113437865Y-102284329D01*
X113445548Y-102286000D01*
X114967885Y-102286000D01*
X114983124Y-102281525D01*
X114984329Y-102280135D01*
X114986000Y-102272452D01*
X114986000Y-102267885D01*
X115494000Y-102267885D01*
X115498475Y-102283124D01*
X115499865Y-102284329D01*
X115507548Y-102286000D01*
X117029884Y-102286000D01*
X117045123Y-102281525D01*
X117046328Y-102280135D01*
X117047999Y-102272452D01*
X117047999Y-101195331D01*
X117047629Y-101188510D01*
X117042105Y-101137648D01*
X117038479Y-101122396D01*
X116993324Y-101001946D01*
X116984786Y-100986351D01*
X116908285Y-100884276D01*
X116895724Y-100871715D01*
X116793649Y-100795214D01*
X116778054Y-100786676D01*
X116657606Y-100741522D01*
X116642351Y-100737895D01*
X116591486Y-100732369D01*
X116584672Y-100732000D01*
X115512115Y-100732000D01*
X115496876Y-100736475D01*
X115495671Y-100737865D01*
X115494000Y-100745548D01*
X115494000Y-102267885D01*
X114986000Y-102267885D01*
X114986000Y-100750116D01*
X114981525Y-100734877D01*
X114980135Y-100733672D01*
X114972452Y-100732001D01*
X113895331Y-100732001D01*
X113888510Y-100732371D01*
X113837648Y-100737895D01*
X113822396Y-100741521D01*
X113701946Y-100786676D01*
X113686351Y-100795214D01*
X113584276Y-100871715D01*
X113571715Y-100884276D01*
X113495214Y-100986351D01*
X113486676Y-101001946D01*
X113441522Y-101122394D01*
X113437895Y-101137649D01*
X113432369Y-101188514D01*
X113432000Y-101195328D01*
X113432000Y-102267885D01*
X101385789Y-102267885D01*
X101201122Y-102083218D01*
X101167096Y-102020906D01*
X101164907Y-102007293D01*
X101160891Y-101969077D01*
X101147542Y-101842072D01*
X101088527Y-101660444D01*
X100993040Y-101495056D01*
X100865253Y-101353134D01*
X100710752Y-101240882D01*
X100704724Y-101238198D01*
X100704722Y-101238197D01*
X100542319Y-101165891D01*
X100542318Y-101165891D01*
X100536288Y-101163206D01*
X100442888Y-101143353D01*
X100355944Y-101124872D01*
X100355939Y-101124872D01*
X100349487Y-101123500D01*
X100158513Y-101123500D01*
X100152061Y-101124872D01*
X100152056Y-101124872D01*
X100065112Y-101143353D01*
X99971712Y-101163206D01*
X99965682Y-101165891D01*
X99965681Y-101165891D01*
X99803278Y-101238197D01*
X99803276Y-101238198D01*
X99797248Y-101240882D01*
X99642747Y-101353134D01*
X99514960Y-101495056D01*
X99419473Y-101660444D01*
X99360458Y-101842072D01*
X99340496Y-102032000D01*
X99360458Y-102221928D01*
X99419473Y-102403556D01*
X99514960Y-102568944D01*
X99519378Y-102573851D01*
X99519379Y-102573852D01*
X99626105Y-102692383D01*
X99642747Y-102710866D01*
X99718087Y-102765604D01*
X99759471Y-102795671D01*
X99797248Y-102823118D01*
X99803276Y-102825802D01*
X99803278Y-102825803D01*
X99960430Y-102895771D01*
X99971712Y-102900794D01*
X100059429Y-102919439D01*
X100152056Y-102939128D01*
X100152061Y-102939128D01*
X100158513Y-102940500D01*
X100214406Y-102940500D01*
X100282527Y-102960502D01*
X100303501Y-102977405D01*
X100579595Y-103253499D01*
X100613621Y-103315811D01*
X100616500Y-103342594D01*
X100616500Y-111599404D01*
X100596498Y-111667525D01*
X100555867Y-111707122D01*
X100446683Y-111773377D01*
X100442653Y-111776874D01*
X100349484Y-111857722D01*
X100272555Y-111924477D01*
X100253809Y-111947339D01*
X100129760Y-112098627D01*
X100129756Y-112098633D01*
X100126376Y-112102755D01*
X100108448Y-112134250D01*
X100057368Y-112183555D01*
X99987738Y-112197417D01*
X99921667Y-112171434D01*
X99894427Y-112142284D01*
X99867814Y-112102755D01*
X99812559Y-112020681D01*
X99653424Y-111853865D01*
X99468458Y-111716246D01*
X99463707Y-111713830D01*
X99463703Y-111713828D01*
X99345588Y-111653776D01*
X99262949Y-111611760D01*
X99257855Y-111610178D01*
X99257852Y-111610177D01*
X99047871Y-111544976D01*
X99042773Y-111543393D01*
X99037484Y-111542692D01*
X98819511Y-111513802D01*
X98819506Y-111513802D01*
X98814226Y-111513102D01*
X98808897Y-111513302D01*
X98808895Y-111513302D01*
X98699034Y-111517427D01*
X98583842Y-111521751D01*
X98578623Y-111522846D01*
X98556566Y-111527474D01*
X98358209Y-111569093D01*
X98353250Y-111571051D01*
X98353248Y-111571052D01*
X98148744Y-111651815D01*
X98148742Y-111651816D01*
X98143779Y-111653776D01*
X98139220Y-111656543D01*
X98139217Y-111656544D01*
X98044113Y-111714255D01*
X97946683Y-111773377D01*
X97942653Y-111776874D01*
X97849484Y-111857722D01*
X97772555Y-111924477D01*
X97753809Y-111947339D01*
X97629760Y-112098627D01*
X97629756Y-112098633D01*
X97626376Y-112102755D01*
X97623738Y-112107390D01*
X97623733Y-112107398D01*
X97608171Y-112134735D01*
X97557088Y-112184041D01*
X97487458Y-112197902D01*
X97421387Y-112171918D01*
X97394149Y-112142768D01*
X97315148Y-112025422D01*
X97308481Y-112017130D01*
X97156772Y-111858100D01*
X97148814Y-111851059D01*
X96972475Y-111719859D01*
X96963438Y-111714255D01*
X96767516Y-111614643D01*
X96757665Y-111610643D01*
X96547760Y-111545466D01*
X96537376Y-111543183D01*
X96521957Y-111541139D01*
X96507793Y-111543335D01*
X96504000Y-111556522D01*
X96504000Y-114441192D01*
X95996000Y-114441192D01*
X95996000Y-113272115D01*
X95991525Y-113256876D01*
X95990135Y-113255671D01*
X95982452Y-113254000D01*
X94916151Y-113254000D01*
X94901473Y-113258310D01*
X94899410Y-113270193D01*
X77508000Y-113270193D01*
X77508000Y-112728174D01*
X94896496Y-112728174D01*
X94897915Y-112741414D01*
X94912550Y-112746000D01*
X95977885Y-112746000D01*
X95993124Y-112741525D01*
X95994329Y-112740135D01*
X95996000Y-112732452D01*
X95996000Y-111558808D01*
X95992027Y-111545277D01*
X95981420Y-111543752D01*
X95863579Y-111568477D01*
X95853383Y-111571537D01*
X95648971Y-111652263D01*
X95639439Y-111656994D01*
X95451538Y-111771016D01*
X95442948Y-111777280D01*
X95276948Y-111921327D01*
X95269528Y-111928958D01*
X95130174Y-112098911D01*
X95124150Y-112107678D01*
X95015424Y-112298682D01*
X95010959Y-112308346D01*
X94935969Y-112514941D01*
X94933198Y-112525208D01*
X94896496Y-112728174D01*
X77508000Y-112728174D01*
X77508000Y-110132703D01*
X79890743Y-110132703D01*
X79928268Y-110417734D01*
X80004129Y-110695036D01*
X80116923Y-110959476D01*
X80264561Y-111206161D01*
X80444313Y-111430528D01*
X80461397Y-111446740D01*
X80634115Y-111610643D01*
X80652851Y-111628423D01*
X80886317Y-111796186D01*
X80890112Y-111798195D01*
X80890113Y-111798196D01*
X80908494Y-111807928D01*
X81140392Y-111930712D01*
X81242819Y-111968195D01*
X81375699Y-112016822D01*
X81410373Y-112029511D01*
X81691264Y-112090755D01*
X81719841Y-112093004D01*
X81914282Y-112108307D01*
X81914291Y-112108307D01*
X81916739Y-112108500D01*
X82072271Y-112108500D01*
X82074407Y-112108354D01*
X82074418Y-112108354D01*
X82282548Y-112094165D01*
X82282554Y-112094164D01*
X82286825Y-112093873D01*
X82291020Y-112093004D01*
X82291022Y-112093004D01*
X82427584Y-112064723D01*
X82568342Y-112035574D01*
X82839343Y-111939607D01*
X83094812Y-111807750D01*
X83098313Y-111805289D01*
X83098317Y-111805287D01*
X83227842Y-111714255D01*
X83330023Y-111642441D01*
X83465189Y-111516837D01*
X83537479Y-111449661D01*
X83537481Y-111449658D01*
X83540622Y-111446740D01*
X83722713Y-111224268D01*
X83872927Y-110979142D01*
X83988483Y-110715898D01*
X84067244Y-110439406D01*
X84107751Y-110154784D01*
X84107845Y-110136951D01*
X84109235Y-109871583D01*
X84109235Y-109871576D01*
X84109257Y-109867297D01*
X84071732Y-109582266D01*
X83995871Y-109304964D01*
X83883077Y-109040524D01*
X83735439Y-108793839D01*
X83555687Y-108569472D01*
X83347149Y-108371577D01*
X83113683Y-108203814D01*
X83091843Y-108192250D01*
X83068654Y-108179972D01*
X82859608Y-108069288D01*
X82589627Y-107970489D01*
X82308736Y-107909245D01*
X82277685Y-107906801D01*
X82085718Y-107891693D01*
X82085709Y-107891693D01*
X82083261Y-107891500D01*
X81927729Y-107891500D01*
X81925593Y-107891646D01*
X81925582Y-107891646D01*
X81717452Y-107905835D01*
X81717446Y-107905836D01*
X81713175Y-107906127D01*
X81708980Y-107906996D01*
X81708978Y-107906996D01*
X81572417Y-107935276D01*
X81431658Y-107964426D01*
X81160657Y-108060393D01*
X80905188Y-108192250D01*
X80901687Y-108194711D01*
X80901683Y-108194713D01*
X80891594Y-108201804D01*
X80669977Y-108357559D01*
X80459378Y-108553260D01*
X80277287Y-108775732D01*
X80127073Y-109020858D01*
X80011517Y-109284102D01*
X79932756Y-109560594D01*
X79892249Y-109845216D01*
X79892227Y-109849505D01*
X79892226Y-109849512D01*
X79890765Y-110128417D01*
X79890743Y-110132703D01*
X77508000Y-110132703D01*
X77508000Y-105089134D01*
X94831500Y-105089134D01*
X94838255Y-105151316D01*
X94889385Y-105287705D01*
X94976739Y-105404261D01*
X95093295Y-105491615D01*
X95229684Y-105542745D01*
X95291866Y-105549500D01*
X97088134Y-105549500D01*
X97150316Y-105542745D01*
X97286705Y-105491615D01*
X97403261Y-105404261D01*
X97490615Y-105287705D01*
X97541745Y-105151316D01*
X97548500Y-105089134D01*
X97548500Y-103292866D01*
X97541745Y-103230684D01*
X97490615Y-103094295D01*
X97403261Y-102977739D01*
X97286705Y-102890385D01*
X97150316Y-102839255D01*
X97088134Y-102832500D01*
X95291866Y-102832500D01*
X95229684Y-102839255D01*
X95093295Y-102890385D01*
X94976739Y-102977739D01*
X94889385Y-103094295D01*
X94838255Y-103230684D01*
X94831500Y-103292866D01*
X94831500Y-105089134D01*
X77508000Y-105089134D01*
X77508000Y-102492526D01*
X82947050Y-102492526D01*
X82959947Y-102761019D01*
X83012388Y-103024656D01*
X83103220Y-103277646D01*
X83230450Y-103514431D01*
X83233241Y-103518168D01*
X83233245Y-103518175D01*
X83314887Y-103627506D01*
X83391281Y-103729810D01*
X83394590Y-103733090D01*
X83394595Y-103733096D01*
X83554374Y-103891486D01*
X83582180Y-103919050D01*
X83585942Y-103921808D01*
X83585945Y-103921811D01*
X83698299Y-104004192D01*
X83798954Y-104077995D01*
X83803089Y-104080171D01*
X83803093Y-104080173D01*
X84022718Y-104195724D01*
X84036840Y-104203154D01*
X84290613Y-104291775D01*
X84295206Y-104292647D01*
X84550109Y-104341042D01*
X84550112Y-104341042D01*
X84554698Y-104341913D01*
X84682370Y-104346929D01*
X84818625Y-104352283D01*
X84818630Y-104352283D01*
X84823293Y-104352466D01*
X84927607Y-104341042D01*
X85085844Y-104323713D01*
X85085850Y-104323712D01*
X85090497Y-104323203D01*
X85203985Y-104293324D01*
X85345918Y-104255956D01*
X85345920Y-104255955D01*
X85350441Y-104254765D01*
X85458626Y-104208285D01*
X85593120Y-104150502D01*
X85593122Y-104150501D01*
X85597414Y-104148657D01*
X85716071Y-104075230D01*
X85822017Y-104009669D01*
X85822021Y-104009666D01*
X85825990Y-104007210D01*
X86031149Y-103833530D01*
X86208382Y-103631434D01*
X86353797Y-103405361D01*
X86464199Y-103160278D01*
X86501209Y-103029051D01*
X86535893Y-102906072D01*
X86535894Y-102906069D01*
X86537163Y-102901568D01*
X86555043Y-102761019D01*
X86570688Y-102638045D01*
X86570688Y-102638041D01*
X86571086Y-102634915D01*
X86573571Y-102540000D01*
X86553650Y-102271937D01*
X86543047Y-102225077D01*
X86495361Y-102014331D01*
X86495360Y-102014326D01*
X86494327Y-102009763D01*
X86396902Y-101759238D01*
X86263518Y-101525864D01*
X86097105Y-101314769D01*
X85901317Y-101130591D01*
X85715877Y-101001946D01*
X85684299Y-100980039D01*
X85684296Y-100980037D01*
X85680457Y-100977374D01*
X85676264Y-100975306D01*
X85443564Y-100860551D01*
X85443561Y-100860550D01*
X85439376Y-100858486D01*
X85391745Y-100843239D01*
X85337621Y-100825914D01*
X85183370Y-100776538D01*
X85178763Y-100775788D01*
X85178760Y-100775787D01*
X84922674Y-100734081D01*
X84922675Y-100734081D01*
X84918063Y-100733330D01*
X84787719Y-100731624D01*
X84653961Y-100729873D01*
X84653958Y-100729873D01*
X84649284Y-100729812D01*
X84382937Y-100766060D01*
X84124874Y-100841278D01*
X83880763Y-100953815D01*
X83876854Y-100956378D01*
X83659881Y-101098631D01*
X83659876Y-101098635D01*
X83655968Y-101101197D01*
X83626024Y-101127923D01*
X83499465Y-101240882D01*
X83455426Y-101280188D01*
X83283544Y-101486854D01*
X83144096Y-101716656D01*
X83142287Y-101720970D01*
X83142285Y-101720974D01*
X83091505Y-101842072D01*
X83040148Y-101964545D01*
X82973981Y-102225077D01*
X82947050Y-102492526D01*
X77508000Y-102492526D01*
X77508000Y-98808134D01*
X82951500Y-98808134D01*
X82958255Y-98870316D01*
X83009385Y-99006705D01*
X83096739Y-99123261D01*
X83213295Y-99210615D01*
X83349684Y-99261745D01*
X83411866Y-99268500D01*
X86108134Y-99268500D01*
X86170316Y-99261745D01*
X86306705Y-99210615D01*
X86423261Y-99123261D01*
X86510615Y-99006705D01*
X86561745Y-98870316D01*
X86568500Y-98808134D01*
X86568500Y-97412526D01*
X113427050Y-97412526D01*
X113439947Y-97681019D01*
X113492388Y-97944656D01*
X113583220Y-98197646D01*
X113710450Y-98434431D01*
X113713241Y-98438168D01*
X113713245Y-98438175D01*
X113794887Y-98547506D01*
X113871281Y-98649810D01*
X113874590Y-98653090D01*
X113874595Y-98653096D01*
X114058863Y-98835762D01*
X114062180Y-98839050D01*
X114065942Y-98841808D01*
X114065945Y-98841811D01*
X114114912Y-98877715D01*
X114278954Y-98997995D01*
X114283089Y-99000171D01*
X114283093Y-99000173D01*
X114512698Y-99120975D01*
X114516840Y-99123154D01*
X114770613Y-99211775D01*
X114775206Y-99212647D01*
X115030109Y-99261042D01*
X115030112Y-99261042D01*
X115034698Y-99261913D01*
X115162370Y-99266929D01*
X115298625Y-99272283D01*
X115298630Y-99272283D01*
X115303293Y-99272466D01*
X115407607Y-99261042D01*
X115565844Y-99243713D01*
X115565850Y-99243712D01*
X115570497Y-99243203D01*
X115682302Y-99213767D01*
X115825918Y-99175956D01*
X115825920Y-99175955D01*
X115830441Y-99174765D01*
X115937795Y-99128642D01*
X116073120Y-99070502D01*
X116073122Y-99070501D01*
X116077414Y-99068657D01*
X116196071Y-98995230D01*
X116302017Y-98929669D01*
X116302021Y-98929666D01*
X116305990Y-98927210D01*
X116511149Y-98753530D01*
X116688382Y-98551434D01*
X116833797Y-98325361D01*
X116944199Y-98080278D01*
X116981209Y-97949051D01*
X117015893Y-97826072D01*
X117015894Y-97826069D01*
X117017163Y-97821568D01*
X117035043Y-97681019D01*
X117050688Y-97558045D01*
X117050688Y-97558041D01*
X117051086Y-97554915D01*
X117053571Y-97460000D01*
X117033650Y-97191937D01*
X116974327Y-96929763D01*
X116876902Y-96679238D01*
X116743518Y-96445864D01*
X116577105Y-96234769D01*
X116381317Y-96050591D01*
X116183407Y-95913295D01*
X116164299Y-95900039D01*
X116164296Y-95900037D01*
X116160457Y-95897374D01*
X116156264Y-95895306D01*
X115923564Y-95780551D01*
X115923561Y-95780550D01*
X115919376Y-95778486D01*
X115871745Y-95763239D01*
X115693657Y-95706233D01*
X115663370Y-95696538D01*
X115658763Y-95695788D01*
X115658760Y-95695787D01*
X115445337Y-95661029D01*
X115398063Y-95653330D01*
X115267719Y-95651624D01*
X115133961Y-95649873D01*
X115133958Y-95649873D01*
X115129284Y-95649812D01*
X114862937Y-95686060D01*
X114604874Y-95761278D01*
X114360763Y-95873815D01*
X114356854Y-95876378D01*
X114139881Y-96018631D01*
X114139876Y-96018635D01*
X114135968Y-96021197D01*
X113935426Y-96200188D01*
X113763544Y-96406854D01*
X113624096Y-96636656D01*
X113520148Y-96884545D01*
X113453981Y-97145077D01*
X113427050Y-97412526D01*
X86568500Y-97412526D01*
X86568500Y-96111866D01*
X86561745Y-96049684D01*
X86510615Y-95913295D01*
X86423261Y-95796739D01*
X86306705Y-95709385D01*
X86170316Y-95658255D01*
X86108134Y-95651500D01*
X83411866Y-95651500D01*
X83349684Y-95658255D01*
X83213295Y-95709385D01*
X83096739Y-95796739D01*
X83009385Y-95913295D01*
X82958255Y-96049684D01*
X82951500Y-96111866D01*
X82951500Y-98808134D01*
X77508000Y-98808134D01*
X77508000Y-92634000D01*
X77528002Y-92565879D01*
X77581658Y-92519386D01*
X77634000Y-92508000D01*
X122366000Y-92508000D01*
X122434121Y-92528002D01*
G37*
%TD.AperFunction*%
%TD*%
M02*
