%TF.GenerationSoftware,KiCad,Pcbnew,(6.0.0)*%
%TF.CreationDate,2022-12-15T23:32:01-05:00*%
%TF.ProjectId,FanExpander,46616e45-7870-4616-9e64-65722e6b6963,rev?*%
%TF.SameCoordinates,Original*%
%TF.FileFunction,Legend,Top*%
%TF.FilePolarity,Positive*%
%FSLAX46Y46*%
G04 Gerber Fmt 4.6, Leading zero omitted, Abs format (unit mm)*
G04 Created by KiCad (PCBNEW (6.0.0)) date 2022-12-15 23:32:01*
%MOMM*%
%LPD*%
G01*
G04 APERTURE LIST*
%ADD10C,0.150000*%
%ADD11C,0.300000*%
%ADD12C,0.100000*%
%ADD13C,0.120000*%
G04 APERTURE END LIST*
D10*
X110811428Y-93578571D02*
X110478095Y-93578571D01*
X110478095Y-94102380D02*
X110478095Y-93102380D01*
X110954285Y-93102380D01*
X111763809Y-94102380D02*
X111763809Y-93578571D01*
X111716190Y-93483333D01*
X111620952Y-93435714D01*
X111430476Y-93435714D01*
X111335238Y-93483333D01*
X111763809Y-94054761D02*
X111668571Y-94102380D01*
X111430476Y-94102380D01*
X111335238Y-94054761D01*
X111287619Y-93959523D01*
X111287619Y-93864285D01*
X111335238Y-93769047D01*
X111430476Y-93721428D01*
X111668571Y-93721428D01*
X111763809Y-93673809D01*
X112240000Y-93435714D02*
X112240000Y-94102380D01*
X112240000Y-93530952D02*
X112287619Y-93483333D01*
X112382857Y-93435714D01*
X112525714Y-93435714D01*
X112620952Y-93483333D01*
X112668571Y-93578571D01*
X112668571Y-94102380D01*
X113906666Y-94102380D02*
X113906666Y-93102380D01*
X114287619Y-93102380D01*
X114382857Y-93150000D01*
X114430476Y-93197619D01*
X114478095Y-93292857D01*
X114478095Y-93435714D01*
X114430476Y-93530952D01*
X114382857Y-93578571D01*
X114287619Y-93626190D01*
X113906666Y-93626190D01*
X115049523Y-94102380D02*
X114954285Y-94054761D01*
X114906666Y-94007142D01*
X114859047Y-93911904D01*
X114859047Y-93626190D01*
X114906666Y-93530952D01*
X114954285Y-93483333D01*
X115049523Y-93435714D01*
X115192380Y-93435714D01*
X115287619Y-93483333D01*
X115335238Y-93530952D01*
X115382857Y-93626190D01*
X115382857Y-93911904D01*
X115335238Y-94007142D01*
X115287619Y-94054761D01*
X115192380Y-94102380D01*
X115049523Y-94102380D01*
X115716190Y-93435714D02*
X115906666Y-94102380D01*
X116097142Y-93626190D01*
X116287619Y-94102380D01*
X116478095Y-93435714D01*
X117240000Y-94054761D02*
X117144761Y-94102380D01*
X116954285Y-94102380D01*
X116859047Y-94054761D01*
X116811428Y-93959523D01*
X116811428Y-93578571D01*
X116859047Y-93483333D01*
X116954285Y-93435714D01*
X117144761Y-93435714D01*
X117240000Y-93483333D01*
X117287619Y-93578571D01*
X117287619Y-93673809D01*
X116811428Y-93769047D01*
X117716190Y-94102380D02*
X117716190Y-93435714D01*
X117716190Y-93626190D02*
X117763809Y-93530952D01*
X117811428Y-93483333D01*
X117906666Y-93435714D01*
X118001904Y-93435714D01*
X119097142Y-94102380D02*
X119097142Y-93102380D01*
X119573333Y-93435714D02*
X119573333Y-94102380D01*
X119573333Y-93530952D02*
X119620952Y-93483333D01*
X119716190Y-93435714D01*
X119859047Y-93435714D01*
X119954285Y-93483333D01*
X120001904Y-93578571D01*
X120001904Y-94102380D01*
D11*
X107642333Y-114507666D02*
X107642333Y-112757666D01*
X108309000Y-112757666D01*
X108475666Y-112841000D01*
X108559000Y-112924333D01*
X108642333Y-113091000D01*
X108642333Y-113341000D01*
X108559000Y-113507666D01*
X108475666Y-113591000D01*
X108309000Y-113674333D01*
X107642333Y-113674333D01*
X109725666Y-112757666D02*
X110059000Y-112757666D01*
X110225666Y-112841000D01*
X110392333Y-113007666D01*
X110475666Y-113341000D01*
X110475666Y-113924333D01*
X110392333Y-114257666D01*
X110225666Y-114424333D01*
X110059000Y-114507666D01*
X109725666Y-114507666D01*
X109559000Y-114424333D01*
X109392333Y-114257666D01*
X109309000Y-113924333D01*
X109309000Y-113341000D01*
X109392333Y-113007666D01*
X109559000Y-112841000D01*
X109725666Y-112757666D01*
X111059000Y-112757666D02*
X111475666Y-114507666D01*
X111809000Y-113257666D01*
X112142333Y-114507666D01*
X112559000Y-112757666D01*
X113225666Y-113591000D02*
X113809000Y-113591000D01*
X114059000Y-114507666D02*
X113225666Y-114507666D01*
X113225666Y-112757666D01*
X114059000Y-112757666D01*
X115809000Y-114507666D02*
X115225666Y-113674333D01*
X114809000Y-114507666D02*
X114809000Y-112757666D01*
X115475666Y-112757666D01*
X115642333Y-112841000D01*
X115725666Y-112924333D01*
X115809000Y-113091000D01*
X115809000Y-113341000D01*
X115725666Y-113507666D01*
X115642333Y-113591000D01*
X115475666Y-113674333D01*
X114809000Y-113674333D01*
D10*
X82355238Y-93578571D02*
X82021904Y-93578571D01*
X82021904Y-94102380D02*
X82021904Y-93102380D01*
X82498095Y-93102380D01*
X83307619Y-94102380D02*
X83307619Y-93578571D01*
X83260000Y-93483333D01*
X83164761Y-93435714D01*
X82974285Y-93435714D01*
X82879047Y-93483333D01*
X83307619Y-94054761D02*
X83212380Y-94102380D01*
X82974285Y-94102380D01*
X82879047Y-94054761D01*
X82831428Y-93959523D01*
X82831428Y-93864285D01*
X82879047Y-93769047D01*
X82974285Y-93721428D01*
X83212380Y-93721428D01*
X83307619Y-93673809D01*
X83783809Y-93435714D02*
X83783809Y-94102380D01*
X83783809Y-93530952D02*
X83831428Y-93483333D01*
X83926666Y-93435714D01*
X84069523Y-93435714D01*
X84164761Y-93483333D01*
X84212380Y-93578571D01*
X84212380Y-94102380D01*
X85640952Y-93102380D02*
X85831428Y-93102380D01*
X85926666Y-93150000D01*
X86021904Y-93245238D01*
X86069523Y-93435714D01*
X86069523Y-93769047D01*
X86021904Y-93959523D01*
X85926666Y-94054761D01*
X85831428Y-94102380D01*
X85640952Y-94102380D01*
X85545714Y-94054761D01*
X85450476Y-93959523D01*
X85402857Y-93769047D01*
X85402857Y-93435714D01*
X85450476Y-93245238D01*
X85545714Y-93150000D01*
X85640952Y-93102380D01*
X86926666Y-93435714D02*
X86926666Y-94102380D01*
X86498095Y-93435714D02*
X86498095Y-93959523D01*
X86545714Y-94054761D01*
X86640952Y-94102380D01*
X86783809Y-94102380D01*
X86879047Y-94054761D01*
X86926666Y-94007142D01*
X87260000Y-93435714D02*
X87640952Y-93435714D01*
X87402857Y-93102380D02*
X87402857Y-93959523D01*
X87450476Y-94054761D01*
X87545714Y-94102380D01*
X87640952Y-94102380D01*
D11*
X77648095Y-96332857D02*
X79171904Y-96332857D01*
X78410000Y-97094761D02*
X78410000Y-95570952D01*
X77648095Y-103952857D02*
X79171904Y-103952857D01*
D12*
X94609523Y-107600000D02*
X94533333Y-107561904D01*
X94419047Y-107561904D01*
X94304761Y-107600000D01*
X94228571Y-107676190D01*
X94190476Y-107752380D01*
X94152380Y-107904761D01*
X94152380Y-108019047D01*
X94190476Y-108171428D01*
X94228571Y-108247619D01*
X94304761Y-108323809D01*
X94419047Y-108361904D01*
X94495238Y-108361904D01*
X94609523Y-108323809D01*
X94647619Y-108285714D01*
X94647619Y-108019047D01*
X94495238Y-108019047D01*
X94990476Y-107828571D02*
X94990476Y-108361904D01*
X94990476Y-107904761D02*
X95028571Y-107866666D01*
X95104761Y-107828571D01*
X95219047Y-107828571D01*
X95295238Y-107866666D01*
X95333333Y-107942857D01*
X95333333Y-108361904D01*
X96057142Y-108361904D02*
X96057142Y-107561904D01*
X96057142Y-108323809D02*
X95980952Y-108361904D01*
X95828571Y-108361904D01*
X95752380Y-108323809D01*
X95714285Y-108285714D01*
X95676190Y-108209523D01*
X95676190Y-107980952D01*
X95714285Y-107904761D01*
X95752380Y-107866666D01*
X95828571Y-107828571D01*
X95980952Y-107828571D01*
X96057142Y-107866666D01*
X96857142Y-107336000D02*
X97542857Y-107336000D01*
X97314285Y-107942857D02*
X97047619Y-107942857D01*
X97047619Y-108361904D02*
X97047619Y-107561904D01*
X97428571Y-107561904D01*
X97542857Y-107336000D02*
X98266666Y-107336000D01*
X98076190Y-108361904D02*
X98076190Y-107942857D01*
X98038095Y-107866666D01*
X97961904Y-107828571D01*
X97809523Y-107828571D01*
X97733333Y-107866666D01*
X98076190Y-108323809D02*
X98000000Y-108361904D01*
X97809523Y-108361904D01*
X97733333Y-108323809D01*
X97695238Y-108247619D01*
X97695238Y-108171428D01*
X97733333Y-108095238D01*
X97809523Y-108057142D01*
X98000000Y-108057142D01*
X98076190Y-108019047D01*
X98266666Y-107336000D02*
X98647619Y-107336000D01*
X98457142Y-108361904D02*
X98457142Y-107828571D01*
X98457142Y-107561904D02*
X98419047Y-107600000D01*
X98457142Y-107638095D01*
X98495238Y-107600000D01*
X98457142Y-107561904D01*
X98457142Y-107638095D01*
X98647619Y-107336000D02*
X99066666Y-107336000D01*
X98952380Y-108361904D02*
X98876190Y-108323809D01*
X98838095Y-108247619D01*
X98838095Y-107561904D01*
X100133333Y-107942857D02*
X99866666Y-107942857D01*
X99866666Y-108361904D02*
X99866666Y-107561904D01*
X100247619Y-107561904D01*
X100895238Y-108361904D02*
X100895238Y-107942857D01*
X100857142Y-107866666D01*
X100780952Y-107828571D01*
X100628571Y-107828571D01*
X100552380Y-107866666D01*
X100895238Y-108323809D02*
X100819047Y-108361904D01*
X100628571Y-108361904D01*
X100552380Y-108323809D01*
X100514285Y-108247619D01*
X100514285Y-108171428D01*
X100552380Y-108095238D01*
X100628571Y-108057142D01*
X100819047Y-108057142D01*
X100895238Y-108019047D01*
X101276190Y-107828571D02*
X101276190Y-108361904D01*
X101276190Y-107904761D02*
X101314285Y-107866666D01*
X101390476Y-107828571D01*
X101504761Y-107828571D01*
X101580952Y-107866666D01*
X101619047Y-107942857D01*
X101619047Y-108361904D01*
X102000000Y-107942857D02*
X102266666Y-107942857D01*
X102380952Y-108361904D02*
X102000000Y-108361904D01*
X102000000Y-107561904D01*
X102380952Y-107561904D01*
X102723809Y-107828571D02*
X102723809Y-108361904D01*
X102723809Y-107904761D02*
X102761904Y-107866666D01*
X102838095Y-107828571D01*
X102952380Y-107828571D01*
X103028571Y-107866666D01*
X103066666Y-107942857D01*
X103066666Y-108361904D01*
X103980952Y-107561904D02*
X104476190Y-107561904D01*
X104209523Y-107866666D01*
X104323809Y-107866666D01*
X104400000Y-107904761D01*
X104438095Y-107942857D01*
X104476190Y-108019047D01*
X104476190Y-108209523D01*
X104438095Y-108285714D01*
X104400000Y-108323809D01*
X104323809Y-108361904D01*
X104095238Y-108361904D01*
X104019047Y-108323809D01*
X103980952Y-108285714D01*
X104742857Y-107828571D02*
X104933333Y-108361904D01*
X105123809Y-107828571D01*
X105352380Y-107561904D02*
X105847619Y-107561904D01*
X105580952Y-107866666D01*
X105695238Y-107866666D01*
X105771428Y-107904761D01*
X105809523Y-107942857D01*
X105847619Y-108019047D01*
X105847619Y-108209523D01*
X105809523Y-108285714D01*
X105771428Y-108323809D01*
X105695238Y-108361904D01*
X105466666Y-108361904D01*
X105390476Y-108323809D01*
X105352380Y-108285714D01*
D11*
X86707000Y-112263500D02*
X88207000Y-112263500D01*
X87707000Y-113591000D02*
X87123666Y-113591000D01*
X87123666Y-114507666D02*
X87123666Y-112757666D01*
X87957000Y-112757666D01*
X88207000Y-112263500D02*
X89707000Y-112263500D01*
X88540333Y-114007666D02*
X89373666Y-114007666D01*
X88373666Y-114507666D02*
X88957000Y-112757666D01*
X89540333Y-114507666D01*
X89707000Y-112263500D02*
X90540333Y-112263500D01*
X90123666Y-114507666D02*
X90123666Y-112757666D01*
X90540333Y-112263500D02*
X91957000Y-112263500D01*
X91790333Y-114507666D02*
X90957000Y-114507666D01*
X90957000Y-112757666D01*
X120828095Y-103952857D02*
X122351904Y-103952857D01*
X120828095Y-96332857D02*
X122351904Y-96332857D01*
X121590000Y-97094761D02*
X121590000Y-95570952D01*
D10*
%TO.C,J3*%
X110842666Y-103516380D02*
X110842666Y-104230666D01*
X110795047Y-104373523D01*
X110699809Y-104468761D01*
X110556952Y-104516380D01*
X110461714Y-104516380D01*
X111223619Y-103516380D02*
X111842666Y-103516380D01*
X111509333Y-103897333D01*
X111652190Y-103897333D01*
X111747428Y-103944952D01*
X111795047Y-103992571D01*
X111842666Y-104087809D01*
X111842666Y-104325904D01*
X111795047Y-104421142D01*
X111747428Y-104468761D01*
X111652190Y-104516380D01*
X111366476Y-104516380D01*
X111271238Y-104468761D01*
X111223619Y-104421142D01*
%TO.C,C2*%
X106183333Y-102577142D02*
X106135714Y-102624761D01*
X105992857Y-102672380D01*
X105897619Y-102672380D01*
X105754761Y-102624761D01*
X105659523Y-102529523D01*
X105611904Y-102434285D01*
X105564285Y-102243809D01*
X105564285Y-102100952D01*
X105611904Y-101910476D01*
X105659523Y-101815238D01*
X105754761Y-101720000D01*
X105897619Y-101672380D01*
X105992857Y-101672380D01*
X106135714Y-101720000D01*
X106183333Y-101767619D01*
X106564285Y-101767619D02*
X106611904Y-101720000D01*
X106707142Y-101672380D01*
X106945238Y-101672380D01*
X107040476Y-101720000D01*
X107088095Y-101767619D01*
X107135714Y-101862857D01*
X107135714Y-101958095D01*
X107088095Y-102100952D01*
X106516666Y-102672380D01*
X107135714Y-102672380D01*
%TO.C,C3*%
X99833333Y-106453142D02*
X99785714Y-106500761D01*
X99642857Y-106548380D01*
X99547619Y-106548380D01*
X99404761Y-106500761D01*
X99309523Y-106405523D01*
X99261904Y-106310285D01*
X99214285Y-106119809D01*
X99214285Y-105976952D01*
X99261904Y-105786476D01*
X99309523Y-105691238D01*
X99404761Y-105596000D01*
X99547619Y-105548380D01*
X99642857Y-105548380D01*
X99785714Y-105596000D01*
X99833333Y-105643619D01*
X100166666Y-105548380D02*
X100785714Y-105548380D01*
X100452380Y-105929333D01*
X100595238Y-105929333D01*
X100690476Y-105976952D01*
X100738095Y-106024571D01*
X100785714Y-106119809D01*
X100785714Y-106357904D01*
X100738095Y-106453142D01*
X100690476Y-106500761D01*
X100595238Y-106548380D01*
X100309523Y-106548380D01*
X100214285Y-106500761D01*
X100166666Y-106453142D01*
%TO.C,U1*%
X99238095Y-96052380D02*
X99238095Y-96861904D01*
X99285714Y-96957142D01*
X99333333Y-97004761D01*
X99428571Y-97052380D01*
X99619047Y-97052380D01*
X99714285Y-97004761D01*
X99761904Y-96957142D01*
X99809523Y-96861904D01*
X99809523Y-96052380D01*
X100809523Y-97052380D02*
X100238095Y-97052380D01*
X100523809Y-97052380D02*
X100523809Y-96052380D01*
X100428571Y-96195238D01*
X100333333Y-96290476D01*
X100238095Y-96338095D01*
%TO.C,D2*%
X107389904Y-111120380D02*
X107389904Y-110120380D01*
X107628000Y-110120380D01*
X107770857Y-110168000D01*
X107866095Y-110263238D01*
X107913714Y-110358476D01*
X107961333Y-110548952D01*
X107961333Y-110691809D01*
X107913714Y-110882285D01*
X107866095Y-110977523D01*
X107770857Y-111072761D01*
X107628000Y-111120380D01*
X107389904Y-111120380D01*
X108342285Y-110215619D02*
X108389904Y-110168000D01*
X108485142Y-110120380D01*
X108723238Y-110120380D01*
X108818476Y-110168000D01*
X108866095Y-110215619D01*
X108913714Y-110310857D01*
X108913714Y-110406095D01*
X108866095Y-110548952D01*
X108294666Y-111120380D01*
X108913714Y-111120380D01*
%TO.C,D1*%
X91133904Y-111120380D02*
X91133904Y-110120380D01*
X91372000Y-110120380D01*
X91514857Y-110168000D01*
X91610095Y-110263238D01*
X91657714Y-110358476D01*
X91705333Y-110548952D01*
X91705333Y-110691809D01*
X91657714Y-110882285D01*
X91610095Y-110977523D01*
X91514857Y-111072761D01*
X91372000Y-111120380D01*
X91133904Y-111120380D01*
X92657714Y-111120380D02*
X92086285Y-111120380D01*
X92372000Y-111120380D02*
X92372000Y-110120380D01*
X92276761Y-110263238D01*
X92181523Y-110358476D01*
X92086285Y-110406095D01*
%TO.C,J2*%
X88490666Y-103389380D02*
X88490666Y-104103666D01*
X88443047Y-104246523D01*
X88347809Y-104341761D01*
X88204952Y-104389380D01*
X88109714Y-104389380D01*
X88919238Y-103484619D02*
X88966857Y-103437000D01*
X89062095Y-103389380D01*
X89300190Y-103389380D01*
X89395428Y-103437000D01*
X89443047Y-103484619D01*
X89490666Y-103579857D01*
X89490666Y-103675095D01*
X89443047Y-103817952D01*
X88871619Y-104389380D01*
X89490666Y-104389380D01*
%TO.C,J1*%
X104238666Y-110628380D02*
X104238666Y-111342666D01*
X104191047Y-111485523D01*
X104095809Y-111580761D01*
X103952952Y-111628380D01*
X103857714Y-111628380D01*
X105238666Y-111628380D02*
X104667238Y-111628380D01*
X104952952Y-111628380D02*
X104952952Y-110628380D01*
X104857714Y-110771238D01*
X104762476Y-110866476D01*
X104667238Y-110914095D01*
%TO.C,R2*%
X89165333Y-111120380D02*
X88832000Y-110644190D01*
X88593904Y-111120380D02*
X88593904Y-110120380D01*
X88974857Y-110120380D01*
X89070095Y-110168000D01*
X89117714Y-110215619D01*
X89165333Y-110310857D01*
X89165333Y-110453714D01*
X89117714Y-110548952D01*
X89070095Y-110596571D01*
X88974857Y-110644190D01*
X88593904Y-110644190D01*
X89546285Y-110215619D02*
X89593904Y-110168000D01*
X89689142Y-110120380D01*
X89927238Y-110120380D01*
X90022476Y-110168000D01*
X90070095Y-110215619D01*
X90117714Y-110310857D01*
X90117714Y-110406095D01*
X90070095Y-110548952D01*
X89498666Y-111120380D01*
X90117714Y-111120380D01*
%TO.C,R3*%
X110501333Y-111120380D02*
X110168000Y-110644190D01*
X109929904Y-111120380D02*
X109929904Y-110120380D01*
X110310857Y-110120380D01*
X110406095Y-110168000D01*
X110453714Y-110215619D01*
X110501333Y-110310857D01*
X110501333Y-110453714D01*
X110453714Y-110548952D01*
X110406095Y-110596571D01*
X110310857Y-110644190D01*
X109929904Y-110644190D01*
X110834666Y-110120380D02*
X111453714Y-110120380D01*
X111120380Y-110501333D01*
X111263238Y-110501333D01*
X111358476Y-110548952D01*
X111406095Y-110596571D01*
X111453714Y-110691809D01*
X111453714Y-110929904D01*
X111406095Y-111025142D01*
X111358476Y-111072761D01*
X111263238Y-111120380D01*
X110977523Y-111120380D01*
X110882285Y-111072761D01*
X110834666Y-111025142D01*
%TO.C,C1*%
X93483333Y-96635142D02*
X93435714Y-96682761D01*
X93292857Y-96730380D01*
X93197619Y-96730380D01*
X93054761Y-96682761D01*
X92959523Y-96587523D01*
X92911904Y-96492285D01*
X92864285Y-96301809D01*
X92864285Y-96158952D01*
X92911904Y-95968476D01*
X92959523Y-95873238D01*
X93054761Y-95778000D01*
X93197619Y-95730380D01*
X93292857Y-95730380D01*
X93435714Y-95778000D01*
X93483333Y-95825619D01*
X94435714Y-96730380D02*
X93864285Y-96730380D01*
X94150000Y-96730380D02*
X94150000Y-95730380D01*
X94054761Y-95873238D01*
X93959523Y-95968476D01*
X93864285Y-96016095D01*
%TO.C,R1*%
X93483333Y-104230380D02*
X93150000Y-103754190D01*
X92911904Y-104230380D02*
X92911904Y-103230380D01*
X93292857Y-103230380D01*
X93388095Y-103278000D01*
X93435714Y-103325619D01*
X93483333Y-103420857D01*
X93483333Y-103563714D01*
X93435714Y-103658952D01*
X93388095Y-103706571D01*
X93292857Y-103754190D01*
X92911904Y-103754190D01*
X94435714Y-104230380D02*
X93864285Y-104230380D01*
X94150000Y-104230380D02*
X94150000Y-103230380D01*
X94054761Y-103373238D01*
X93959523Y-103468476D01*
X93864285Y-103516095D01*
D13*
%TO.C,J3*%
X119900000Y-105140000D02*
X119900000Y-94860000D01*
X119400000Y-105380000D02*
X120140000Y-105380000D01*
X119340000Y-105140000D02*
X119340000Y-94860000D01*
X116479000Y-98494000D02*
X116514000Y-98529000D01*
X109979000Y-105140000D02*
X109979000Y-94860000D01*
X109979000Y-94860000D02*
X119900000Y-94860000D01*
X109979000Y-105140000D02*
X119900000Y-105140000D01*
X116263000Y-98687000D02*
X116309000Y-98734000D01*
X113965000Y-96390000D02*
X114001000Y-96425000D01*
X114171000Y-96185000D02*
X114217000Y-96232000D01*
X117840000Y-105140000D02*
X117840000Y-94860000D01*
X120140000Y-105380000D02*
X120140000Y-104880000D01*
X112939000Y-105140000D02*
X112939000Y-94860000D01*
X114556000Y-104075000D02*
G75*
G03*
X115923042Y-104075427I684001J1534993D01*
G01*
X113705000Y-101856000D02*
G75*
G03*
X113704573Y-103223042I1534993J-684001D01*
G01*
X116775000Y-103224000D02*
G75*
G03*
X116920253Y-102511195I-1535001J683999D01*
G01*
X116920000Y-102540000D02*
G75*
G03*
X116774756Y-101856682I-1679992J1D01*
G01*
X115924000Y-101005000D02*
G75*
G03*
X114556958Y-101004573I-684001J-1534993D01*
G01*
X116920000Y-97460000D02*
G75*
G03*
X116920000Y-97460000I-1680000J0D01*
G01*
%TO.C,C2*%
X107085000Y-99941252D02*
X107085000Y-99418748D01*
X105615000Y-99941252D02*
X105615000Y-99418748D01*
%TO.C,C3*%
X99738748Y-103456000D02*
X100261252Y-103456000D01*
X99738748Y-104926000D02*
X100261252Y-104926000D01*
%TO.C,U1*%
X100000000Y-102560000D02*
X98050000Y-102560000D01*
X100000000Y-97440000D02*
X96550000Y-97440000D01*
X100000000Y-97440000D02*
X101950000Y-97440000D01*
X100000000Y-102560000D02*
X101950000Y-102560000D01*
%TO.C,D2*%
X107168000Y-106443000D02*
X107168000Y-109128000D01*
X109088000Y-106443000D02*
X107168000Y-106443000D01*
X109088000Y-109128000D02*
X109088000Y-106443000D01*
%TO.C,D1*%
X92832000Y-109128000D02*
X92832000Y-106443000D01*
X92832000Y-106443000D02*
X90912000Y-106443000D01*
X90912000Y-106443000D02*
X90912000Y-109128000D01*
%TO.C,J2*%
X85829000Y-103815000D02*
X85783000Y-103768000D01*
X87061000Y-94860000D02*
X87061000Y-105140000D01*
X80100000Y-94860000D02*
X80100000Y-105140000D01*
X90021000Y-94860000D02*
X80100000Y-94860000D01*
X79860000Y-94620000D02*
X79860000Y-95120000D01*
X90021000Y-94860000D02*
X90021000Y-105140000D01*
X80660000Y-94860000D02*
X80660000Y-105140000D01*
X80600000Y-94620000D02*
X79860000Y-94620000D01*
X86035000Y-103610000D02*
X85999000Y-103575000D01*
X82160000Y-94860000D02*
X82160000Y-105140000D01*
X90021000Y-105140000D02*
X80100000Y-105140000D01*
X83737000Y-101313000D02*
X83691000Y-101266000D01*
X83521000Y-101506000D02*
X83486000Y-101471000D01*
X83080000Y-97460000D02*
G75*
G03*
X83225244Y-98143318I1679992J-1D01*
G01*
X86295000Y-98144000D02*
G75*
G03*
X86295427Y-96776958I-1534993J684001D01*
G01*
X83225000Y-96776000D02*
G75*
G03*
X83079747Y-97488805I1535001J-683999D01*
G01*
X84076000Y-98995000D02*
G75*
G03*
X85443042Y-98995427I684001J1534993D01*
G01*
X85444000Y-95925000D02*
G75*
G03*
X84076958Y-95924573I-684001J-1534993D01*
G01*
X86440000Y-102540000D02*
G75*
G03*
X86440000Y-102540000I-1680000J0D01*
G01*
%TO.C,J5*%
X102480000Y-104191000D02*
X102480000Y-102861000D01*
X102480000Y-105461000D02*
X105140000Y-105461000D01*
X102480000Y-105521000D02*
X105140000Y-105521000D01*
X102480000Y-102861000D02*
X103810000Y-102861000D01*
X102480000Y-105461000D02*
X102480000Y-105521000D01*
X105140000Y-105461000D02*
X105140000Y-105521000D01*
%TO.C,J1*%
X105550000Y-110250000D02*
X100000000Y-110250000D01*
X106310000Y-115460000D02*
X106310000Y-109490000D01*
X106600000Y-115750000D02*
X106600000Y-114500000D01*
X97000000Y-114700000D02*
X97000000Y-115450000D01*
X93700000Y-114700000D02*
X93700000Y-115450000D01*
X94450000Y-113200000D02*
X94450000Y-110250000D01*
X104500000Y-115450000D02*
X106300000Y-115450000D01*
X95500000Y-114700000D02*
X93700000Y-114700000D01*
X93700000Y-115450000D02*
X95500000Y-115450000D01*
X95500000Y-115450000D02*
X95500000Y-114700000D01*
X106300000Y-114700000D02*
X104500000Y-114700000D01*
X103000000Y-114700000D02*
X97000000Y-114700000D01*
X93690000Y-109490000D02*
X93690000Y-115460000D01*
X105550000Y-113200000D02*
X105550000Y-110250000D01*
X93700000Y-113200000D02*
X94450000Y-113200000D01*
X94450000Y-110250000D02*
X100000000Y-110250000D01*
X106310000Y-109490000D02*
X93690000Y-109490000D01*
X105350000Y-115750000D02*
X106600000Y-115750000D01*
X97000000Y-115450000D02*
X103000000Y-115450000D01*
X93690000Y-115460000D02*
X106310000Y-115460000D01*
X106300000Y-113200000D02*
X105550000Y-113200000D01*
X103000000Y-115450000D02*
X103000000Y-114700000D01*
X104500000Y-114700000D02*
X104500000Y-115450000D01*
X106300000Y-115450000D02*
X106300000Y-114700000D01*
%TO.C,R2*%
X88597000Y-107900936D02*
X88597000Y-108355064D01*
X90067000Y-107900936D02*
X90067000Y-108355064D01*
%TO.C,R3*%
X111403000Y-107900936D02*
X111403000Y-108355064D01*
X109933000Y-107900936D02*
X109933000Y-108355064D01*
%TO.C,C1*%
X93388748Y-98830000D02*
X93911252Y-98830000D01*
X93388748Y-97360000D02*
X93911252Y-97360000D01*
%TO.C,J4*%
X94860000Y-105461000D02*
X97520000Y-105461000D01*
X94860000Y-104191000D02*
X94860000Y-102861000D01*
X94860000Y-105461000D02*
X94860000Y-105521000D01*
X94860000Y-105521000D02*
X97520000Y-105521000D01*
X94860000Y-102861000D02*
X96190000Y-102861000D01*
X97520000Y-105461000D02*
X97520000Y-105521000D01*
%TO.C,R1*%
X93877064Y-101043000D02*
X93422936Y-101043000D01*
X93877064Y-102513000D02*
X93422936Y-102513000D01*
%TD*%
M02*
